# xmcd CD database file
#
# Track frame offsets:
#	150
#	8456
#	24814
#	42464
#	60034
#	79142
#	96657
#	113000
#	129349
#	148407
#	165095
#	180939
#
# Disc length: 2647 seconds
#
# Revision: 0
# Processed by: cddbd v1.5.1PL2 Copyright (c) Steve Scherf et al.
# Submitted via: CDex 1.51
#
DISCID=840a550c
DTITLE=Namusoke - Namusoke
DYEAR=2006
DGENRE=Urban soul
TTITLE0=Intro
TTITLE1=It
TTITLE2=Try To Act
TTITLE3=Nakupenda Malayka (Part I)
TTITLE4=Night Riders (Feat Le Déclique)
TTITLE5=Fire and Burn (Feat Million Dan)
TTITLE6=Pik Is On
TTITLE7=Good Body Girls (Feat Rodney P)
TTITLE8=Homyes and Sistas
TTITLE9=No Hesitation
TTITLE10=Nakupenda Malayka (Part II)
TTITLE11=Liar
EXTD=YEAR: 2006
EXTT0=
EXTT1=
EXTT2=
EXTT3=
EXTT4=
EXTT5=
EXTT6=
EXTT7=
EXTT8=
EXTT9=
EXTT10=
EXTT11=
PLAYORDER=
